<svg width="342" height="119" viewBox="0 0 342 119" fill="none" xmlns="http://www.w3.org/2000/svg">
<path d="M0.7 0.525493C0.3 0.825493 0 27.3255 0 59.3255V117.525L36.8 118.025C57 118.225 76.2 118.125 79.5 117.825C82.8 117.425 66.5 117.025 43.3 116.925L1 116.825V58.8255V0.825493H170H339V31.7255V62.6255L336.4 65.7255C335 67.4255 333.5 68.8255 333.1 68.8255C332.7 68.8255 333 66.1255 333.9 62.8255C335.3 57.2255 335.3 56.7255 333.7 55.1255C332.1 53.5255 331.6 53.8255 324.1 61.8255C319.7 66.5255 315.8 70.0255 315.4 69.6255C315 69.2255 316.1 66.5255 317.9 63.7255C323.1 55.3255 319.5 52.7255 312.5 59.8255C308.3 64.1255 306.9 64.4255 309.5 60.4255C311.2 57.8255 311 54.8255 309.1 54.8255C308.5 54.8255 306.5 57.3255 304.5 60.3255C302.6 63.3255 300.6 65.8255 300.1 65.8255C299.6 65.8255 299.3 63.4255 299.4 60.5255L299.5 55.3255L295.9 55.0255C292.5 54.7255 291.8 55.2255 287.4 60.4255C276.1 73.7255 273.1 75.3255 279.4 64.8255C286.2 53.3255 283.6 52.8255 273.2 63.5255C268.7 68.3255 265.6 70.8255 265.3 70.0255C265 69.3255 267 65.3255 269.7 61.0255C274.5 53.6255 274.8 53.3255 279.1 52.8255C284.2 52.2255 285.4 49.5255 280.8 49.0255C278.4 48.7255 278.2 48.4255 279.2 46.9255C280.4 45.0255 279.7 41.8255 278.2 41.8255C277.7 41.8255 276.1 43.6255 274.6 45.8255C272.3 49.4255 271.5 49.8255 268 49.8255C263.4 49.8255 262.3 52.3255 266.5 53.4255L268.9 54.0255L266.3 58.1255C263.2 63.0255 257 69.8255 255.7 69.8255C255.2 69.8255 256 67.8255 257.4 65.4255C260.7 59.8255 260.7 58.5255 257.4 56.3255C253.7 53.9255 251.3 54.9255 243.9 62.0255C236.4 69.2255 230.6 72.8255 229 71.2255C227.4 69.6255 229 66.6255 231.1 67.1255C233.4 67.7255 238.8 64.4255 240.1 61.4255C240.9 59.7255 240.9 58.5255 240 56.8255C237.9 52.8255 233.6 54.8255 224.9 64.0255C220.6 68.5255 216.8 71.9255 216.4 71.6255C215.7 70.8255 216.4 69.6255 221.4 63.4255C224 60.1255 224.1 59.6255 222.8 57.6255C221.6 55.7255 220.4 55.3255 216.9 55.4255C213.2 55.5255 212.5 55.9255 211.9 58.1255C211.5 59.5255 210.5 61.7255 209.6 63.0255C206.6 67.3255 207.9 68.4255 211.5 64.5255C216.3 59.5255 217.6 59.8255 214 65.2255C210.8 69.9255 210.3 72.7255 212.2 74.6255C214 76.4255 216.3 76.1255 220.3 73.4255L223.9 70.9255L225.5 73.4255C227.5 76.4255 230.3 76.4255 235.7 73.3255C239.9 71.0255 240 71.0255 241 72.9255C242.5 75.5255 244.9 75.3255 248.1 72.2255C250.8 69.7255 250.8 69.6255 251.5 71.7255C252.3 74.2255 255.6 74.5255 258.2 72.1255C259.8 70.6255 260 70.6255 260 72.1255C260 74.0255 262.9 75.7255 265 75.0255C265.8 74.7255 267.7 73.6255 269.3 72.6255C272 70.7255 272 70.7255 272 72.7255C272 76.5255 277.7 76.3255 281 72.3255C282.2 70.9255 282.4 71.0255 283.4 73.0255C285.2 76.5255 289.2 76.5255 293.3 72.9255C297.1 69.5255 299.6 68.8255 298.6 71.4255C298.2 72.3255 298.5 73.7255 299.1 74.5255C300.1 75.7255 301.3 74.8255 306.2 69.6255C310.6 64.9255 311.9 63.9255 311.4 65.8255C309.3 73.0255 311.8 76.6255 316.9 73.6255C319.7 72.1255 319.9 72.1255 321.6 73.9255C322.5 74.9255 324.3 75.8255 325.4 75.8255C327.7 75.8255 333.3 72.7255 336.8 69.5255L339 67.5255V92.1255V116.825L296.8 117.025C273.5 117.125 259.7 117.425 266 117.725C272.3 118.025 291.6 118.225 308.8 118.025L340 117.625V91.7255C340 74.6255 340.4 65.0255 341.1 63.6255C341.9 62.1255 341.9 61.4255 341.1 60.9255C340.4 60.4255 339.9 50.5255 339.8 30.3255L339.5 0.325493L170.4 0.0254926C77.4 -0.0745074 1 0.125493 0.7 0.525493ZM235 62.3255C233.7 63.7255 232.4 64.6255 232.2 64.3255C231.9 64.0255 232.7 62.7255 234 61.3255C235.3 59.9255 236.6 59.0255 236.8 59.3255C237.1 59.6255 236.3 60.9255 235 62.3255ZM251.8 64.0255C246.8 69.8255 244 71.6255 246 67.7255C247.8 64.2255 253.2 58.8255 254.8 58.8255C255.7 58.8255 254.5 60.9255 251.8 64.0255ZM296.3 60.8255C296 61.9255 295.4 63.1255 294.9 63.4255C293.9 64.0255 293.7 60.5255 294.7 59.5255C296 58.2255 296.8 58.8255 296.3 60.8255ZM328.3 65.0255C327.4 70.0255 323 74.2255 323 70.1255C323 68.6255 327.5 61.8255 328.5 61.8255C328.8 61.8255 328.7 63.3255 328.3 65.0255ZM291.4 66.5255C292.1 68.3255 288.6 72.7255 287.4 71.5255C286.6 70.7255 288.9 64.8255 290 64.8255C290.4 64.8255 291.1 65.6255 291.4 66.5255Z" fill="black"/>
<path d="M152.3 41.9255C149.5 47.0255 149.3 48.0255 150.6 48.5255C152.6 49.2255 155.5 46.4255 157.5 41.6255C158.9 38.1255 158.9 37.8255 157.2 36.9255C155.8 36.1255 155 37.0255 152.3 41.9255Z" fill="#F4C1DA"/>
<path d="M202.9 37.2255C197.9 39.0255 194.6 41.7255 189 48.7255C183 56.2255 180.6 62.3255 181.3 68.3255C182.4 78.9255 191.8 81.7255 200.1 73.8255C203 71.0255 204 69.3255 204 66.9255V63.8255L198.9 67.8255C193.7 71.9255 189.9 73.5255 188.1 72.3255C187.5 72.0255 187 69.7255 187 67.2255C187 61.5255 190.7 54.0255 196.5 48.3255C200.8 43.9255 208.7 39.2255 209.8 40.2255C210.7 41.2255 208.3 45.5255 204.4 49.7255L200.8 53.8255H203.5C207.1 53.8255 211.4 50.6255 213.4 46.4255C215.5 41.9255 215.4 41.2255 212.5 38.3255C209.8 35.5255 208.1 35.3255 202.9 37.2255Z" fill="black"/>
<path d="M31.4 38.0255C27.5 39.2255 19.4 45.3255 16.7 49.0255C14.2 52.4255 14.1 57.1255 16.5 59.8255C17.5 60.9255 20.7 62.5255 23.7 63.4255C26.6 64.2255 29.2 65.3255 29.4 65.7255C29.7 66.1255 28.8 67.5255 27.4 68.7255C20.4 74.8255 8.90001 74.0255 12.9 67.7255C14.4 65.1255 12 65.1255 9.70001 67.6255C7.40001 70.1255 7.60001 72.2255 10.3 75.4255C12.4 77.8255 13.4 78.1255 17.8 78.0255C26.6 77.8255 35 71.9255 35 65.8255C35 62.2255 32.5 60.1255 25.9 58.2255C18.4 56.0255 18 55.4255 22.1 51.2255C26.2 46.9255 32.3 43.3255 36.8 42.3255C41.3 41.4255 41 43.6255 36 48.9255C33.8 51.2255 32 53.3255 32 53.5255C32 53.6255 33.3 53.8255 35 53.8255C41.8 53.8255 47.7 43.4255 43.5 38.8255C41.5 36.6255 36.7 36.3255 31.4 38.0255Z" fill="black"/>
<path d="M106.2 40.6255C105.3 41.5255 102.5 45.6255 100 49.5255C96.2 55.7255 95.4 56.5255 93.8 55.7255C91.3 54.3255 88 55.5255 85 58.8255C83.6 60.3255 80.8 63.4255 78.7 65.6255C75 69.6255 73 70.8255 73 69.0255C73 68.6255 74.4 66.0255 76.1 63.4255C81.3 55.1255 77.5 52.9255 70.2 60.0255C65.7 64.4255 65.5 64.4255 68 59.5255C69.1 57.3255 69.1 56.5255 68.1 55.5255C67.1 54.5255 66.4 54.9255 64.6 57.3255C61.2 62.0255 53.8 69.8255 52.8 69.8255C52.2 69.8255 53 67.8255 54.4 65.4255C55.8 62.9255 57 60.3255 57 59.5255C57 57.3255 52.2 54.5255 49.6 55.2255C46.3 56.0255 39.1 63.7255 38 67.7255C36.2 74.4255 40.2 76.9255 45.1 72.2255C47.8 69.7255 47.8 69.6255 48.5 71.7255C49.2 74.0255 53.4 74.7255 54.5 72.7255C55 72.1255 55.8 72.5255 56.7 73.8255C58.2 76.0255 58.3 75.9255 64.2 69.6255C68.5 64.9255 69.9 63.9255 69.4 65.8255C67.3 72.8255 69.6 76.3255 74.7 73.8255C76.2 73.0255 77.8 72.2255 78.3 72.0255C78.7 71.8255 79 72.3255 79 73.1255C79 76.8255 84.6 75.5255 87.4 71.2255L89.2 68.5255L90.6 71.6255C91.4 73.6255 92.6 74.8255 93.8 74.8255C95.7 74.8255 107 63.6255 107 61.7255C107 61.2255 107.7 60.8255 108.5 60.8255C109.5 60.8255 109.1 62.1255 106.9 65.3255C101.6 73.1255 104.7 78.1255 112.2 74.0255C115.8 72.0255 116.5 71.9255 117.2 73.3255C118.6 75.6255 122 75.1255 124.3 72.2255L126.3 69.6255L127.7 72.2255C128.4 73.6255 129.3 74.8255 129.6 74.8255C131.6 74.8255 136.5 71.1255 139 67.6255C143.8 61.1255 142.6 59.7255 137 65.3255C131.9 70.3255 130.4 69.8255 134 64.3255C136.7 60.3255 136.5 58.4255 133.4 56.3255C129.4 53.7255 126.7 55.1255 118 64.0255C113.6 68.5255 109.7 71.9255 109.4 71.5255C109 71.1255 110.6 68.4255 112.9 65.5255C115.1 62.5255 117 59.6255 117 59.1255C117 57.0255 113.9 55.5255 109.8 55.5255C106.1 55.5255 105.5 55.8255 104.9 58.1255C104 61.4255 97.2 69.8255 95.4 69.8255C93.2 69.8255 95.5 65.0255 102 56.3255C108.7 47.4255 111 43.4255 111 40.6255C111 38.3255 108.5 38.3255 106.2 40.6255ZM48.8 64.0255C43.8 69.8255 41 71.6255 43 67.7255C44.8 64.2255 50.2 58.8255 51.8 58.8255C52.7 58.8255 51.5 60.9255 48.8 64.0255ZM88.4 65.9255C85.8 68.6255 83.4 70.6255 83.2 70.4255C82.4 69.5255 86.1 63.9255 89.2 61.3255C94.4 56.9255 93.8 60.4255 88.4 65.9255ZM127.8 64.0255C122.8 69.8255 120 71.6255 122 67.7255C123.8 64.2255 129.2 58.8255 130.8 58.8255C131.7 58.8255 130.5 60.9255 127.8 64.0255Z" fill="black"/>
<path d="M287.2 43.4255C284.8 45.1255 284.5 48.8255 286.7 49.5255C288.5 50.1255 291.3 45.2255 290.3 43.4255C289.5 42.0255 289.2 42.0255 287.2 43.4255Z" fill="#F4C1DB"/>
<path d="M159.8 54.9255C158.9 55.4255 155.9 58.7255 153.1 62.2255C147.8 68.8255 147.5 70.2255 150.8 74.0255C153 76.6255 155.9 76.2255 161.3 72.9255C165.9 69.9255 171.9 62.4255 170.6 61.1255C170.3 60.7255 168.4 62.3255 166.4 64.6255C164.5 66.9255 162.5 68.8255 162.1 68.8255C161.7 68.8255 162 66.1255 162.9 62.8255C164.3 57.5255 164.3 56.7255 163 55.4255C161.9 54.4255 161 54.2255 159.8 54.9255ZM157.3 65.0255C156.3 70.5255 152 74.2255 152 69.6255C152 67.9255 156.4 61.8255 157.7 61.8255C157.8 61.8255 157.7 63.3255 157.3 65.0255Z" fill="black"/>
<path d="M98.5 112.326C98.5 114.226 98.8 115.826 99.3 115.826C99.7 115.826 100 114.226 100 112.326C100 110.426 99.7 108.826 99.3 108.826C98.8 108.826 98.5 110.426 98.5 112.326Z" fill="black"/>
<path d="M103.3 112.326C103.3 114.526 103.5 115.326 103.7 114.026C103.9 112.826 103.9 111.026 103.7 110.026C103.4 109.126 103.2 110.126 103.3 112.326Z" fill="black"/>
<path d="M109.5 110.326C109.9 111.426 110.5 113.126 110.7 114.026C111 115.026 111.6 115.826 112.1 115.826C112.6 115.826 112.4 114.626 111.8 113.026C110.4 109.726 108.3 107.326 109.5 110.326Z" fill="black"/>
<path d="M118.2 112.226C119.5 114.126 120.6 115.526 120.8 115.326C121.4 114.726 117.7 108.826 116.8 108.826C116.3 108.826 117 110.326 118.2 112.226Z" fill="black"/>
<path d="M125.3 112.326C125.3 114.526 125.5 115.326 125.7 114.026C125.9 112.826 125.9 111.026 125.7 110.026C125.4 109.126 125.2 110.126 125.3 112.326Z" fill="black"/>
<path d="M128.9 112.026C129.3 114.826 129.5 114.926 129.8 112.926C130 111.626 129.8 110.226 129.3 109.726C128.7 109.126 128.6 110.026 128.9 112.026Z" fill="black"/>
<path d="M135.2 111.526C136.6 114.926 138.7 117.326 137.5 114.326C137.1 113.226 136.5 111.526 136.3 110.526C136 109.626 135.4 108.826 134.9 108.826C134.4 108.826 134.6 110.026 135.2 111.526Z" fill="black"/>
<path d="M139 112.326C139 114.226 139.5 115.826 140 115.826C140.6 115.826 141 114.226 141 112.326C141 110.426 140.6 108.826 140 108.826C139.5 108.826 139 110.426 139 112.326Z" fill="black"/>
<path d="M146.5 110.326C146.9 111.426 147.5 113.126 147.7 114.026C148 115.026 148.6 115.826 149.1 115.826C149.6 115.826 149.4 114.626 148.8 113.026C147.4 109.726 145.3 107.326 146.5 110.326Z" fill="black"/>
<path d="M153.3 112.326C153.3 114.526 153.5 115.326 153.7 114.026C153.9 112.826 153.9 111.026 153.7 110.026C153.4 109.126 153.2 110.126 153.3 112.326Z" fill="black"/>
<path d="M156.9 112.026C157.3 114.826 157.5 114.926 157.8 112.926C158 111.626 157.8 110.226 157.3 109.726C156.7 109.126 156.6 110.026 156.9 112.026Z" fill="black"/>
<path d="M162.3 112.326C162.3 114.526 162.5 115.326 162.7 114.026C162.9 112.826 162.9 111.026 162.7 110.026C162.4 109.126 162.2 110.126 162.3 112.326Z" fill="black"/>
<path d="M174.3 111.825C174.9 113.425 175.6 114.625 175.8 114.425C176.4 113.825 174.8 108.825 174 108.825C173.5 108.825 173.7 110.125 174.3 111.825Z" fill="black"/>
<path d="M177.6 110.825C177.9 112.225 178.7 114.025 179.2 114.825C179.8 115.825 179.9 115.525 179.4 113.825C179.1 112.425 178.3 110.625 177.8 109.825C177.2 108.825 177.1 109.125 177.6 110.825Z" fill="black"/>
<path d="M185.3 112.326C185.3 114.526 185.5 115.326 185.7 114.026C185.9 112.826 185.9 111.026 185.7 110.026C185.4 109.126 185.2 110.126 185.3 112.326Z" fill="black"/>
<path d="M192.3 112.326C192.3 114.526 192.5 115.326 192.7 114.026C192.9 112.826 192.9 111.026 192.7 110.026C192.4 109.126 192.2 110.126 192.3 112.326Z" fill="black"/>
<path d="M198 112.326C198 114.226 198.5 115.826 199 115.826C199.6 115.826 200 114.226 200 112.326C200 110.426 199.6 108.826 199 108.826C198.5 108.826 198 110.426 198 112.326Z" fill="black"/>
<path d="M202.8 112.326C202.6 114.226 202.8 115.826 203.2 115.826C203.6 115.826 204 114.226 204 112.326C204 110.426 203.8 108.826 203.6 108.826C203.4 108.826 203 110.426 202.8 112.326Z" fill="black"/>
<path d="M212.3 112.326C212.3 114.526 212.5 115.326 212.7 114.026C212.9 112.826 212.9 111.026 212.7 110.026C212.4 109.126 212.2 110.126 212.3 112.326Z" fill="black"/>
<path d="M229.3 111.826C229.9 113.426 230.8 114.826 231.1 114.826C231.5 114.826 231.3 113.426 230.7 111.826C230.1 110.126 229.2 108.826 228.9 108.826C228.5 108.826 228.7 110.126 229.3 111.826Z" fill="black"/>
<path d="M237.5 112.326C237.5 114.226 237.8 115.826 238.3 115.826C238.7 115.826 239 114.226 239 112.326C239 110.426 238.7 108.826 238.3 108.826C237.8 108.826 237.5 110.426 237.5 112.326Z" fill="black"/>
</svg>
