<svg width="500" height="500" viewBox="0 0 500 500" fill="none" xmlns="http://www.w3.org/2000/svg">
<path d="M79.7 183.525C79.3 183.825 79 210.325 79 242.325V300.525L115.8 301.025C136 301.225 155.2 301.125 158.5 300.825C161.8 300.425 145.5 300.025 122.3 299.925L80 299.825V241.825V183.825H249H418V214.725V245.625L415.4 248.725C414 250.425 412.5 251.825 412.1 251.825C411.7 251.825 412 249.125 412.9 245.825C414.3 240.225 414.3 239.725 412.7 238.125C411.1 236.525 410.6 236.825 403.1 244.825C398.7 249.525 394.8 253.025 394.4 252.625C394 252.225 395.1 249.525 396.9 246.725C402.1 238.325 398.5 235.725 391.5 242.825C387.3 247.125 385.9 247.425 388.5 243.425C390.2 240.825 390 237.825 388.1 237.825C387.5 237.825 385.5 240.325 383.5 243.325C381.6 246.325 379.6 248.825 379.1 248.825C378.6 248.825 378.3 246.425 378.4 243.525L378.5 238.325L374.9 238.025C371.5 237.725 370.8 238.225 366.4 243.425C355.1 256.725 352.1 258.325 358.4 247.825C365.2 236.325 362.6 235.825 352.2 246.525C347.7 251.325 344.6 253.825 344.3 253.025C344 252.325 346 248.325 348.7 244.025C353.5 236.625 353.8 236.325 358.1 235.825C363.2 235.225 364.4 232.525 359.8 232.025C357.4 231.725 357.2 231.425 358.2 229.925C359.4 228.025 358.7 224.825 357.2 224.825C356.7 224.825 355.1 226.625 353.6 228.825C351.3 232.425 350.5 232.825 347 232.825C342.4 232.825 341.3 235.325 345.5 236.425L347.9 237.025L345.3 241.125C342.2 246.025 336 252.825 334.7 252.825C334.2 252.825 335 250.825 336.4 248.425C339.7 242.825 339.7 241.525 336.4 239.325C332.7 236.925 330.3 237.925 322.9 245.025C315.4 252.225 309.6 255.825 308 254.225C306.4 252.625 308 249.625 310.1 250.125C312.4 250.725 317.8 247.425 319.1 244.425C319.9 242.725 319.9 241.525 319 239.825C316.9 235.825 312.6 237.825 303.9 247.025C299.6 251.525 295.8 254.925 295.4 254.625C294.7 253.825 295.4 252.625 300.4 246.425C303 243.125 303.1 242.625 301.8 240.625C300.6 238.725 299.4 238.325 295.9 238.425C292.2 238.525 291.5 238.925 290.9 241.125C290.5 242.525 289.5 244.725 288.6 246.025C285.6 250.325 286.9 251.425 290.5 247.525C295.3 242.525 296.6 242.825 293 248.225C289.8 252.925 289.3 255.725 291.2 257.625C293 259.425 295.3 259.125 299.3 256.425L302.9 253.925L304.5 256.425C306.5 259.425 309.3 259.425 314.7 256.325C318.9 254.025 319 254.025 320 255.925C321.5 258.525 323.9 258.325 327.1 255.225C329.8 252.725 329.8 252.625 330.5 254.725C331.3 257.225 334.6 257.525 337.2 255.125C338.8 253.625 339 253.625 339 255.125C339 257.025 341.9 258.725 344 258.025C344.8 257.725 346.7 256.625 348.3 255.625C351 253.725 351 253.725 351 255.725C351 259.525 356.7 259.325 360 255.325C361.2 253.925 361.4 254.025 362.4 256.025C364.2 259.525 368.2 259.525 372.3 255.925C376.1 252.525 378.6 251.825 377.6 254.425C377.2 255.325 377.5 256.725 378.1 257.525C379.1 258.725 380.3 257.825 385.2 252.625C389.6 247.925 390.9 246.925 390.4 248.825C388.3 256.025 390.8 259.625 395.9 256.625C398.7 255.125 398.9 255.125 400.6 256.925C401.5 257.925 403.3 258.825 404.4 258.825C406.7 258.825 412.3 255.725 415.8 252.525L418 250.525V275.125V299.825L375.8 300.025C352.5 300.125 338.7 300.425 345 300.725C351.3 301.025 370.6 301.225 387.8 301.025L419 300.625V274.725C419 257.625 419.4 248.025 420.1 246.625C420.9 245.125 420.9 244.425 420.1 243.925C419.4 243.425 418.9 233.525 418.8 213.325L418.5 183.325L249.4 183.025C156.4 182.925 80 183.125 79.7 183.525ZM314 245.325C312.7 246.725 311.4 247.625 311.2 247.325C310.9 247.025 311.7 245.725 313 244.325C314.3 242.925 315.6 242.025 315.8 242.325C316.1 242.625 315.3 243.925 314 245.325ZM330.8 247.025C325.8 252.825 323 254.625 325 250.725C326.8 247.225 332.2 241.825 333.8 241.825C334.7 241.825 333.5 243.925 330.8 247.025ZM375.3 243.825C375 244.925 374.4 246.125 373.9 246.425C372.9 247.025 372.7 243.525 373.7 242.525C375 241.225 375.8 241.825 375.3 243.825ZM407.3 248.025C406.4 253.025 402 257.225 402 253.125C402 251.625 406.5 244.825 407.5 244.825C407.8 244.825 407.7 246.325 407.3 248.025ZM370.4 249.525C371.1 251.325 367.6 255.725 366.4 254.525C365.6 253.725 367.9 247.825 369 247.825C369.4 247.825 370.1 248.625 370.4 249.525Z" fill="black"/>
<path d="M231.3 224.925C228.5 230.025 228.3 231.025 229.6 231.525C231.6 232.225 234.5 229.425 236.5 224.625C237.9 221.125 237.9 220.825 236.2 219.925C234.8 219.125 234 220.025 231.3 224.925Z" fill="#F4C1DA"/>
<path d="M281.9 220.226C276.9 222.026 273.6 224.726 268 231.726C262 239.226 259.6 245.326 260.3 251.326C261.4 261.926 270.8 264.726 279.1 256.826C282 254.026 283 252.326 283 249.926V246.826L277.9 250.826C272.7 254.926 268.9 256.526 267.1 255.326C266.5 255.026 266 252.726 266 250.226C266 244.526 269.7 237.026 275.5 231.326C279.8 226.926 287.7 222.226 288.8 223.226C289.7 224.226 287.3 228.526 283.4 232.726L279.8 236.826H282.5C286.1 236.826 290.4 233.626 292.4 229.426C294.5 224.926 294.4 224.226 291.5 221.326C288.8 218.526 287.1 218.326 281.9 220.226Z" fill="black"/>
<path d="M110.4 221.025C106.5 222.225 98.4 228.325 95.7 232.025C93.2 235.425 93.1 240.125 95.5 242.825C96.5 243.925 99.7 245.525 102.7 246.425C105.6 247.225 108.2 248.325 108.4 248.725C108.7 249.125 107.8 250.525 106.4 251.725C99.4 257.825 87.9 257.025 91.9 250.725C93.4 248.125 91 248.125 88.7 250.625C86.4 253.125 86.6 255.225 89.3 258.425C91.4 260.825 92.4 261.125 96.8 261.025C105.6 260.825 114 254.925 114 248.825C114 245.225 111.5 243.125 104.9 241.225C97.4 239.025 97 238.425 101.1 234.225C105.2 229.925 111.3 226.325 115.8 225.325C120.3 224.425 120 226.625 115 231.925C112.8 234.225 111 236.325 111 236.525C111 236.625 112.3 236.825 114 236.825C120.8 236.825 126.7 226.425 122.5 221.825C120.5 219.625 115.7 219.325 110.4 221.025Z" fill="black"/>
<path d="M185.2 223.626C184.3 224.526 181.5 228.626 179 232.526C175.2 238.726 174.4 239.526 172.8 238.726C170.3 237.326 167 238.526 164 241.826C162.6 243.326 159.8 246.426 157.7 248.626C154 252.626 152 253.826 152 252.026C152 251.626 153.4 249.026 155.1 246.426C160.3 238.126 156.5 235.926 149.2 243.026C144.7 247.426 144.5 247.426 147 242.526C148.1 240.326 148.1 239.526 147.1 238.526C146.1 237.526 145.4 237.926 143.6 240.326C140.2 245.026 132.8 252.826 131.8 252.826C131.2 252.826 132 250.826 133.4 248.426C134.8 245.926 136 243.326 136 242.526C136 240.326 131.2 237.526 128.6 238.226C125.3 239.026 118.1 246.726 117 250.726C115.2 257.426 119.2 259.926 124.1 255.226C126.8 252.726 126.8 252.626 127.5 254.726C128.2 257.026 132.4 257.726 133.5 255.726C134 255.126 134.8 255.526 135.7 256.826C137.2 259.026 137.3 258.926 143.2 252.626C147.5 247.926 148.9 246.926 148.4 248.826C146.3 255.826 148.6 259.326 153.7 256.826C155.2 256.026 156.8 255.226 157.3 255.026C157.7 254.826 158 255.326 158 256.126C158 259.826 163.6 258.526 166.4 254.226L168.2 251.526L169.6 254.626C170.4 256.626 171.6 257.826 172.8 257.826C174.7 257.826 186 246.626 186 244.726C186 244.226 186.7 243.826 187.5 243.826C188.5 243.826 188.1 245.126 185.9 248.326C180.6 256.126 183.7 261.126 191.2 257.026C194.8 255.026 195.5 254.926 196.2 256.326C197.6 258.626 201 258.126 203.3 255.226L205.3 252.626L206.7 255.226C207.4 256.626 208.3 257.826 208.6 257.826C210.6 257.826 215.5 254.126 218 250.626C222.8 244.126 221.6 242.726 216 248.326C210.9 253.326 209.4 252.826 213 247.326C215.7 243.326 215.5 241.426 212.4 239.326C208.4 236.726 205.7 238.126 197 247.026C192.6 251.526 188.7 254.926 188.4 254.526C188 254.126 189.6 251.426 191.9 248.526C194.1 245.526 196 242.626 196 242.126C196 240.026 192.9 238.526 188.8 238.526C185.1 238.526 184.5 238.826 183.9 241.126C183 244.426 176.2 252.826 174.4 252.826C172.2 252.826 174.5 248.026 181 239.326C187.7 230.426 190 226.426 190 223.626C190 221.326 187.5 221.326 185.2 223.626ZM127.8 247.026C122.8 252.826 120 254.626 122 250.726C123.8 247.226 129.2 241.826 130.8 241.826C131.7 241.826 130.5 243.926 127.8 247.026ZM167.4 248.926C164.8 251.626 162.4 253.626 162.2 253.426C161.4 252.526 165.1 246.926 168.2 244.326C173.4 239.926 172.8 243.426 167.4 248.926ZM206.8 247.026C201.8 252.826 199 254.626 201 250.726C202.8 247.226 208.2 241.826 209.8 241.826C210.7 241.826 209.5 243.926 206.8 247.026Z" fill="black"/>
<path d="M366.2 226.425C363.8 228.125 363.5 231.825 365.7 232.525C367.5 233.125 370.3 228.225 369.3 226.425C368.5 225.025 368.2 225.025 366.2 226.425Z" fill="#F4C1DB"/>
<path d="M238.8 237.925C237.9 238.425 234.9 241.725 232.1 245.225C226.8 251.825 226.5 253.225 229.8 257.025C232 259.625 234.9 259.225 240.3 255.925C244.9 252.925 250.9 245.425 249.6 244.125C249.3 243.725 247.4 245.325 245.4 247.625C243.5 249.925 241.5 251.825 241.1 251.825C240.7 251.825 241 249.125 241.9 245.825C243.3 240.525 243.3 239.725 242 238.425C240.9 237.425 240 237.225 238.8 237.925ZM236.3 248.025C235.3 253.525 231 257.225 231 252.625C231 250.925 235.4 244.825 236.7 244.825C236.8 244.825 236.7 246.325 236.3 248.025Z" fill="black"/>
<path d="M177.5 295.326C177.5 297.226 177.8 298.826 178.3 298.826C178.7 298.826 179 297.226 179 295.326C179 293.426 178.7 291.826 178.3 291.826C177.8 291.826 177.5 293.426 177.5 295.326Z" fill="black"/>
<path d="M182.3 295.326C182.3 297.526 182.5 298.326 182.7 297.026C182.9 295.826 182.9 294.026 182.7 293.026C182.4 292.126 182.2 293.126 182.3 295.326Z" fill="black"/>
<path d="M188.5 293.326C188.9 294.426 189.5 296.126 189.7 297.026C190 298.026 190.6 298.826 191.1 298.826C191.6 298.826 191.4 297.626 190.8 296.026C189.4 292.726 187.3 290.326 188.5 293.326Z" fill="black"/>
<path d="M197.2 295.226C198.5 297.126 199.6 298.526 199.8 298.326C200.4 297.726 196.7 291.826 195.8 291.826C195.3 291.826 196 293.326 197.2 295.226Z" fill="black"/>
<path d="M204.3 295.326C204.3 297.526 204.5 298.326 204.7 297.026C204.9 295.826 204.9 294.026 204.7 293.026C204.4 292.126 204.2 293.126 204.3 295.326Z" fill="black"/>
<path d="M207.9 295.026C208.3 297.826 208.5 297.926 208.8 295.926C209 294.626 208.8 293.226 208.3 292.726C207.7 292.126 207.6 293.026 207.9 295.026Z" fill="black"/>
<path d="M214.2 294.526C215.6 297.926 217.7 300.326 216.5 297.326C216.1 296.226 215.5 294.526 215.3 293.526C215 292.626 214.4 291.826 213.9 291.826C213.4 291.826 213.6 293.026 214.2 294.526Z" fill="black"/>
<path d="M218 295.326C218 297.226 218.5 298.826 219 298.826C219.6 298.826 220 297.226 220 295.326C220 293.426 219.6 291.826 219 291.826C218.5 291.826 218 293.426 218 295.326Z" fill="black"/>
<path d="M225.5 293.326C225.9 294.426 226.5 296.126 226.7 297.026C227 298.026 227.6 298.826 228.1 298.826C228.6 298.826 228.4 297.626 227.8 296.026C226.4 292.726 224.3 290.326 225.5 293.326Z" fill="black"/>
<path d="M232.3 295.326C232.3 297.526 232.5 298.326 232.7 297.026C232.9 295.826 232.9 294.026 232.7 293.026C232.4 292.126 232.2 293.126 232.3 295.326Z" fill="black"/>
<path d="M235.9 295.026C236.3 297.826 236.5 297.926 236.8 295.926C237 294.626 236.8 293.226 236.3 292.726C235.7 292.126 235.6 293.026 235.9 295.026Z" fill="black"/>
<path d="M241.3 295.326C241.3 297.526 241.5 298.326 241.7 297.026C241.9 295.826 241.9 294.026 241.7 293.026C241.4 292.126 241.2 293.126 241.3 295.326Z" fill="black"/>
<path d="M253.3 294.825C253.9 296.425 254.6 297.625 254.8 297.425C255.4 296.825 253.8 291.825 253 291.825C252.5 291.825 252.7 293.125 253.3 294.825Z" fill="black"/>
<path d="M256.6 293.825C256.9 295.225 257.7 297.025 258.2 297.825C258.8 298.825 258.9 298.525 258.4 296.825C258.1 295.425 257.3 293.625 256.8 292.825C256.2 291.825 256.1 292.125 256.6 293.825Z" fill="black"/>
<path d="M264.3 295.326C264.3 297.526 264.5 298.326 264.7 297.026C264.9 295.826 264.9 294.026 264.7 293.026C264.4 292.126 264.2 293.126 264.3 295.326Z" fill="black"/>
<path d="M271.3 295.326C271.3 297.526 271.5 298.326 271.7 297.026C271.9 295.826 271.9 294.026 271.7 293.026C271.4 292.126 271.2 293.126 271.3 295.326Z" fill="black"/>
<path d="M277 295.326C277 297.226 277.5 298.826 278 298.826C278.6 298.826 279 297.226 279 295.326C279 293.426 278.6 291.826 278 291.826C277.5 291.826 277 293.426 277 295.326Z" fill="black"/>
<path d="M281.8 295.326C281.6 297.226 281.8 298.826 282.2 298.826C282.6 298.826 283 297.226 283 295.326C283 293.426 282.8 291.826 282.6 291.826C282.4 291.826 282 293.426 281.8 295.326Z" fill="black"/>
<path d="M291.3 295.326C291.3 297.526 291.5 298.326 291.7 297.026C291.9 295.826 291.9 294.026 291.7 293.026C291.4 292.126 291.2 293.126 291.3 295.326Z" fill="black"/>
<path d="M308.3 294.826C308.9 296.426 309.8 297.826 310.1 297.826C310.5 297.826 310.3 296.426 309.7 294.826C309.1 293.126 308.2 291.826 307.9 291.826C307.5 291.826 307.7 293.126 308.3 294.826Z" fill="black"/>
<path d="M316.5 295.326C316.5 297.226 316.8 298.826 317.3 298.826C317.7 298.826 318 297.226 318 295.326C318 293.426 317.7 291.826 317.3 291.826C316.8 291.826 316.5 293.426 316.5 295.326Z" fill="black"/>
<path d="M176.2 150.841C163.1 152.941 149.6 163.641 145.3 175.241C144.1 178.341 143.2 181.241 143.2 181.741C143.2 182.341 146.3 182.741 150.2 182.741H157.1L157.7 178.941C159.7 167.641 163.6 160.441 170.3 156.041C176.2 152.141 186.9 151.541 193.1 154.641C200.1 158.241 204.5 166.141 206.7 178.941L207.3 182.741H215.9H224.5L223.8 177.641C221.2 157.941 201.3 146.741 176.2 150.841Z" fill="#ECC1EC"/>
<path d="M311.7 150.341C301.8 151.941 292.7 155.741 284.9 161.641C280.1 165.141 272.5 174.341 269.6 179.941L268.1 182.741H277.1H286L287.7 177.841C289.8 171.341 296.2 161.641 300 158.841C306.3 154.441 311.4 152.741 319.2 152.741C328.3 152.741 333.7 154.941 337.7 160.141C340.8 164.141 344.2 174.241 344.2 179.341V182.741H353.2H362.2V177.941C362.1 166.341 352.4 156.041 337.7 152.141C332.3 150.641 316.6 149.641 311.7 150.341Z" fill="#ECC1EC"/>
<path d="M141.7 191.241C139.9 207.841 145.4 222.941 157.2 234.141C164.2 240.641 164.3 240.741 166.7 239.141C168.3 238.041 170.3 237.741 172.2 238.041C174.9 238.641 175.3 238.241 178.2 233.241C179.9 230.241 181.8 227.541 182.3 227.141C182.8 226.841 180.2 224.441 176.4 221.741C164.1 213.141 159.7 206.341 157.9 193.141L156.8 184.741H149.6H142.4L141.7 191.241Z" fill="#ECC1EC"/>
<path d="M207.2 188.541C207.2 190.641 207.4 192.641 207.7 192.941C208 193.241 210.4 193.041 212.9 192.641C217.6 191.741 220.6 189.741 222.3 186.541C223.2 184.841 222.6 184.741 215.2 184.741H207.2V188.541Z" fill="#ECC1EC"/>
<path d="M266.4 186.441C263.5 192.041 259.9 206.141 258.2 217.941C256.8 227.341 256.9 255.241 258.2 264.741C259.8 275.941 263.4 289.841 264.9 290.441C265.6 290.741 266.2 292.141 266.2 293.641C266.2 298.141 272.4 308.641 279.4 316.241C286.8 324.141 295.6 329.541 305.2 331.841C313.7 333.941 329.5 333.441 337.8 330.941C351.9 326.641 362.2 315.541 362.2 304.641C362.2 302.041 361.9 301.741 358.8 301.741C355.6 301.741 355.4 302.041 353.4 307.441C347.1 324.641 336.9 331.741 320.2 330.541C311.7 329.941 303.8 326.341 298.3 320.641C293.5 315.641 288.1 305.441 286.1 297.841C284.7 292.341 282.7 290.741 283.4 295.741C283.7 297.741 283.4 298.741 282.5 298.741C281.8 298.741 281.2 298.041 281.2 297.241C281.2 296.441 280.7 295.741 280.1 295.741C279.5 295.741 279.2 296.441 279.6 297.241C279.9 298.241 279.5 298.741 278.4 298.741C277.1 298.741 276.7 297.841 276.7 294.741C276.7 291.541 277.1 290.741 278.5 290.741C279.9 290.741 280.2 291.241 279.7 292.741C279.3 293.841 279.5 294.741 280.1 294.741C280.7 294.741 281.2 293.841 281.2 292.741C281.2 291.641 281.9 290.741 282.8 290.741C283.8 290.741 284.2 290.141 283.8 288.941C282.7 285.041 281.2 275.241 280.6 266.841L279.9 257.841L276.3 259.841C271 262.641 266.6 262.341 263.1 258.841C260.6 256.241 260.2 255.141 260.2 250.241C260.2 246.341 261 243.041 262.7 239.341C265.4 233.641 275.1 222.241 278.1 221.241C279.6 220.741 280.1 219.241 280.7 212.941C281.4 205.341 283.4 192.841 284.7 187.441L285.4 184.741H276.3C268.7 184.741 267.1 185.041 266.4 186.441ZM275.2 292.341C275.2 293.441 274.7 293.741 273.6 293.341C272.3 292.841 272.1 293.241 272.4 295.741C272.7 297.641 272.4 298.741 271.7 298.741C271 298.741 270.7 297.541 271 295.541C271.4 292.941 271.2 292.541 269.8 293.041C268.8 293.441 268.2 293.141 268.2 292.241C268.2 291.241 269.3 290.741 271.7 290.741C274.2 290.741 275.2 291.141 275.2 292.341Z" fill="#ECC1EC"/>
<path d="M345.2 189.741C345.2 194.241 345.4 194.741 347.5 194.741C352.6 194.641 361.2 188.841 361.2 185.541C361.2 185.041 357.6 184.741 353.2 184.741H345.2V189.741Z" fill="#ECC1EC"/>
<path d="M275.3 232.341C268.1 240.141 263.5 253.541 267.5 255.041C269.2 255.641 276.2 252.641 277.9 250.641C278.8 249.541 280.4 227.741 279.6 227.741C279.5 227.741 277.6 229.741 275.3 232.341Z" fill="#ECC1EC"/>
<path d="M187.3 231.641C186.7 232.741 183.9 236.541 181.2 240.141C176 246.941 175.2 248.741 177.6 248.741C179.4 248.741 182.8 244.041 183.7 240.541C184.3 238.241 184.8 238.041 189.5 238.141C194.1 238.241 194.7 238.541 195.6 240.841C196.4 243.141 196 244.141 192.7 248.141C186.6 255.641 189.5 254.641 197.1 246.641L204.1 239.341L200.9 237.241C199.1 236.041 195.6 233.841 193 232.341C188.4 229.641 188.3 229.641 187.3 231.641Z" fill="#ECC1EC"/>
<path d="M205.8 245.441C201.6 249.641 200.2 252.941 204.2 249.241C207.1 246.441 209.8 242.741 208.9 242.741C208.7 242.741 207.2 243.941 205.8 245.441Z" fill="#ECC1EC"/>
<path d="M185.6 246.441C184.5 248.041 183.2 249.941 182.7 250.741C182 251.941 182.1 252.041 183.3 251.041C184.7 249.941 188.6 243.741 187.9 243.741C187.7 243.741 186.7 244.941 185.6 246.441Z" fill="#ECC1EC"/>
<path d="M212.1 249.941C210.9 252.241 210.9 252.241 213.1 250.341C215.4 248.241 215.7 247.741 214.2 247.741C213.7 247.741 212.7 248.741 212.1 249.941Z" fill="#ECC1EC"/>
<path d="M214.7 254.741C211.4 258.241 208.9 258.541 206.9 255.741C205.5 253.841 205.5 253.841 203.2 256.241C200.4 259.241 197.8 259.441 195.9 256.741C194.6 254.841 194.4 254.841 193.1 256.341C192 257.741 192.1 258.041 193.7 259.041C197.4 261.041 204.4 268.141 206.7 272.141C209.1 276.541 210.7 281.041 211.7 286.941C212 289.141 212.9 290.741 213.6 290.741C214.4 290.741 215.3 291.941 215.7 293.441L216.4 296.241L217.4 293.441C218.9 289.341 220.8 290.041 220.7 294.741V298.741H216.5H212.4L211.7 303.941C210.1 315.441 204.8 324.241 196.9 328.441C194.8 329.541 190.6 330.241 184.7 330.541C176.4 330.841 175.3 330.641 170.2 328.041C163.1 324.441 158.8 318.641 156 309.141L153.8 301.741H145.5H137.2L137.9 304.941C139.7 315.041 147.7 324.741 157.7 329.341C168.1 334.141 188 334.541 200.2 330.241C213.6 325.541 223.9 313.241 226.7 298.941C226.9 297.441 226.6 296.741 225.6 296.741C224.8 296.741 224.4 297.141 224.7 297.741C225 298.241 224.6 298.741 223.7 298.741C222.3 298.741 222.3 298.441 223.5 295.941C224.3 294.441 225.2 292.541 225.4 291.741C225.8 290.641 226.2 290.941 227 292.741C228.8 296.941 228.5 275.241 226.7 268.241C225.2 262.741 219.6 251.741 218.2 251.741C217.8 251.741 216.3 253.041 214.7 254.741Z" fill="#ECC1EC"/>
<path d="M145.2 284.541C141.3 286.441 138.7 290.441 137.7 295.941L137 299.741H145.2H153.5L152.8 293.641C152.5 290.241 152.2 286.341 152.2 285.141C152.2 282.241 150.1 282.041 145.2 284.541Z" fill="#ECC1EC"/>
<path d="M355.9 297.741C355.5 299.441 355.9 299.741 358.4 299.741C361.4 299.741 361.5 299.741 359.7 297.741C358.7 296.641 357.6 295.741 357.2 295.741C356.8 295.741 356.2 296.641 355.9 297.741Z" fill="#ECC1EC"/>
</svg>
